<svg width="3056" height="767" viewBox="0 0 3056 767" fill="none" xmlns="http://www.w3.org/2000/svg">
<path d="M193.543 215.617C193.543 175.495 193.543 135.372 193.543 95.2496C193.543 80.2036 194.657 65.1576 198.558 50.6689C204.688 26.7068 220.848 12.2182 243.696 4.97387C265.429 -1.71322 288.276 -0.598707 310.567 2.18758C328.399 4.41662 345.674 9.43187 361.834 17.7907C383.01 29.4932 399.728 46.7681 412.545 66.8294C441.522 111.41 453.782 160.449 448.209 213.388C440.408 283.046 407.53 338.214 350.689 378.894C326.17 396.169 298.864 406.2 269.887 413.444C262.643 415.116 260.971 416.788 260.971 424.589C260.971 457.467 260.414 490.346 260.971 523.224C261.528 548.301 244.253 562.232 218.062 557.774C203.016 554.988 193.543 543.285 193.543 527.682C193.543 494.246 193.543 460.254 193.543 426.818C193.543 416.788 193.543 416.788 183.512 415.673C141.16 412.887 106.053 394.497 74.8467 367.192C47.541 343.787 26.9225 315.924 14.1056 281.931C0.731396 246.267 -2.05489 209.488 1.28866 172.151C5.74672 120.884 24.1362 76.3029 62.587 41.1957C77.0757 27.8215 93.2362 17.2335 111.626 9.98916C127.229 4.41658 142.832 9.98906 150.076 25.035C157.321 39.5237 151.748 56.2415 137.26 64.0431C125 70.7302 113.297 77.4174 104.381 87.448C89.8927 103.051 80.9765 121.441 76.5185 142.059C69.2741 172.151 68.1596 202.801 74.8467 233.45C86.5491 289.733 119.985 337.657 184.627 354.375C191.314 356.046 194.1 353.817 194.1 346.573C193.543 303.107 193.543 259.641 193.543 215.617ZM260.971 224.534C260.971 262.984 260.971 301.435 260.971 339.329C260.971 341.558 260.971 343.787 260.971 346.016C261.528 350.474 264.872 353.26 269.33 352.146C277.131 349.917 284.376 347.688 291.62 344.344C337.872 320.382 364.064 281.374 374.094 230.663C379.109 206.144 379.667 181.067 376.88 156.548C375.209 138.716 372.422 121.441 364.063 105.28C351.804 81.3182 335.086 62.3714 307.223 56.7988C289.948 53.4553 271.001 60.1423 265.986 80.7608C262.643 94.6923 261.528 108.624 261.528 122.555C260.414 156.548 260.971 190.541 260.971 224.534Z" fill="#006297"/>
<path d="M1001.59 250.675C1000.47 253.461 1001.03 255.133 1001.03 257.362C1001.03 329.248 1001.03 401.134 1001.03 473.021C1001.03 476.921 1000.47 478.036 996.013 478.036C977.066 478.036 958.12 478.036 939.173 478.036C935.272 478.036 934.715 476.921 934.715 473.578C934.715 359.897 934.715 246.217 934.715 132.536C934.715 128.635 935.829 128.078 939.173 128.078C959.234 128.078 979.853 128.078 999.914 128.078C1003.26 128.078 1004.93 129.192 1006.6 131.979C1045.05 193.277 1082.95 255.133 1121.4 316.431C1130.31 330.363 1138.67 344.294 1147.59 358.226C1148.14 358.783 1148.14 359.897 1149.82 359.897C1149.82 358.225 1149.82 356.554 1149.82 354.882C1149.82 280.767 1149.82 207.208 1149.82 133.093C1149.82 128.635 1150.93 127.521 1155.39 127.521C1174.34 127.521 1193.28 127.521 1212.23 127.521C1215.57 127.521 1216.69 128.078 1216.69 131.979C1216.69 245.659 1216.69 359.897 1216.69 473.578C1216.69 476.921 1216.13 478.036 1212.23 478.036C1191.05 478.036 1169.88 478.036 1148.7 478.036C1145.36 478.036 1143.69 476.921 1141.46 474.135C1095.21 400.02 1048.95 326.462 1002.14 252.346C1002.7 252.346 1002.14 251.789 1001.59 250.675Z" fill="#006297"/>
<path d="M786.491 247.331C786.491 208.88 786.491 170.987 786.491 132.536C786.491 128.635 787.048 127.521 790.949 127.521C812.125 127.521 832.743 127.521 853.919 127.521C857.82 127.521 858.377 128.635 858.377 131.979C858.377 196.621 858.377 260.705 858.377 325.347C858.377 348.752 857.82 372.714 853.362 396.119C846.675 431.784 826.614 456.86 793.178 471.349C773.674 479.708 753.056 483.051 731.88 483.609C707.36 484.166 683.398 484.166 659.993 477.479C622.1 467.448 594.794 445.158 583.092 406.707C577.519 389.432 576.405 371.042 575.848 353.21C573.618 279.652 575.29 205.537 574.733 131.979C574.733 128.635 575.848 128.078 578.634 128.078C599.81 128.078 620.428 128.078 641.604 128.078C646.062 128.078 646.619 129.192 646.619 133.093C646.619 199.407 646.619 265.163 646.619 331.477C646.619 343.737 646.619 356.554 648.291 368.813C651.635 396.676 668.352 415.623 696.215 421.196C715.719 425.096 735.781 425.096 754.17 417.295C770.888 410.05 780.918 397.233 783.705 378.844C785.934 365.47 786.491 351.538 786.491 338.164C786.491 308.072 785.934 277.98 786.491 247.331Z" fill="#006297"/>
<path d="M1697.05 128.076C1701.51 128.076 1705.41 128.076 1709.31 128.076C1731.6 128.076 1753.89 128.076 1775.62 128.076C1779.52 128.076 1781.2 129.191 1783.43 132.534C1809.62 176 1835.81 219.467 1862.56 263.49C1863.11 264.605 1863.11 265.719 1865.34 266.276C1873.14 253.459 1880.95 240.085 1888.75 226.711C1907.14 195.504 1926.08 163.741 1944.47 132.534C1946.15 129.748 1947.82 128.633 1951.16 128.633C1975.68 128.633 2000.2 128.633 2024.72 128.633C2025.83 128.633 2026.95 128.633 2029.18 128.633C2023.05 138.664 2016.92 147.58 2011.34 156.496C1974.57 213.337 1937.79 270.734 1901.01 327.575C1899.34 330.361 1898.22 333.147 1898.22 336.491C1898.22 382.186 1898.22 427.881 1898.22 473.576C1898.22 477.477 1897.11 478.592 1893.21 478.592C1872.59 478.592 1851.97 478.592 1831.35 478.592C1827.45 478.592 1826.33 477.477 1826.33 473.576C1826.33 427.881 1826.33 381.629 1826.33 335.934C1826.33 332.59 1825.78 329.804 1823.55 327.017C1781.75 261.818 1739.96 196.619 1698.17 131.42C1698.17 130.305 1698.17 129.748 1697.05 128.076Z" fill="#006297"/>
<path d="M1582.26 333.148C1582.26 379.4 1582.26 426.21 1582.26 472.462C1582.26 477.477 1581.14 478.035 1576.68 478.035C1556.62 478.035 1536.56 478.035 1516.5 478.035C1512.04 478.035 1510.37 476.92 1510.37 472.462C1510.37 379.4 1510.37 286.338 1510.37 193.276C1510.37 188.818 1509.81 187.703 1504.8 187.703C1473.03 187.703 1441.27 187.703 1409.51 187.703C1405.61 187.703 1404.49 186.589 1404.49 182.688C1404.49 165.97 1404.49 149.252 1404.49 133.092C1404.49 129.748 1405.61 128.634 1408.95 128.634C1500.34 128.634 1591.17 128.634 1682.56 128.634C1685.91 128.634 1687.02 129.191 1687.02 133.092C1687.02 149.81 1687.02 167.085 1687.02 183.802C1687.02 187.703 1685.91 188.26 1682.56 188.26C1650.8 188.26 1619.04 188.26 1587.27 188.26C1582.26 188.26 1581.7 189.932 1581.7 194.39C1582.26 240.085 1582.26 286.895 1582.26 333.148Z" fill="#006297"/>
<path d="M1290.25 303.056C1290.25 246.773 1290.25 189.933 1290.25 133.65C1290.25 129.192 1291.37 128.077 1295.83 128.634C1316.45 128.634 1336.51 128.634 1357.12 128.634C1361.03 128.634 1362.14 129.192 1362.14 133.65C1362.14 247.33 1362.14 360.454 1362.14 474.134C1362.14 478.035 1361.03 479.15 1357.12 479.15C1336.51 479.15 1315.33 479.15 1294.71 479.15C1290.81 479.15 1290.25 478.035 1290.25 474.134C1290.25 416.737 1290.25 359.896 1290.25 303.056Z" fill="#006297"/>
<path d="M2480.56 456.301C2480.56 451.285 2478.88 445.156 2481.11 442.369C2483.34 439.026 2490.03 441.255 2495.04 440.698C2516.22 438.469 2536.84 433.453 2551.88 416.736C2561.36 406.705 2567.49 395.56 2569.16 382.185C2570.27 372.712 2568.05 363.796 2563.59 355.437C2554.67 338.719 2539.07 329.246 2521.79 322.559C2496.72 313.085 2469.97 306.398 2444.89 296.925C2424.27 289.123 2405.33 278.535 2391.39 260.703C2362.97 223.924 2369.1 177.672 2406.44 148.137C2430.4 129.19 2458.27 121.946 2487.8 124.175C2529.04 127.519 2565.26 143.679 2595.91 172.099C2598.69 174.885 2598.69 176 2595.91 178.786C2589.78 183.802 2584.21 189.374 2578.63 194.389C2576.4 196.618 2575.85 196.061 2573.62 194.389C2547.43 169.87 2516.22 156.496 2480 155.381C2456.59 154.267 2435.98 160.954 2419.26 178.229C2399.2 198.847 2399.75 226.71 2420.37 246.772C2431.52 257.917 2446.01 264.604 2461.05 269.619C2484.46 277.421 2507.86 284.665 2530.71 293.024C2553 300.826 2571.95 312.528 2585.88 332.589C2603.71 359.338 2605.38 386.643 2590.89 415.064C2575.85 444.041 2551.33 460.759 2520.12 467.446C2508.42 470.232 2496.72 471.347 2485.01 471.904C2481.11 471.904 2480 470.79 2480 466.889C2481.11 463.545 2480.56 460.202 2480.56 456.301Z" fill="#006297"/>
<path d="M2757.51 456.86C2757.51 452.959 2757.51 449.616 2757.51 445.715C2756.95 441.814 2758.62 441.257 2761.96 441.257C2777.01 441.257 2791.5 439.028 2805.43 432.898C2825.49 424.539 2838.31 409.493 2844.44 388.874C2850.01 369.37 2839.98 346.523 2819.36 333.149C2805.99 324.233 2790.38 319.774 2775.34 314.759C2751.38 306.957 2727.41 300.828 2704.57 289.682C2682.83 279.095 2665.56 264.049 2656.08 241.201C2643.27 209.437 2650.51 181.017 2673.36 157.055C2697.88 131.421 2729.09 121.948 2763.64 124.734C2805.43 127.52 2841.09 144.238 2871.74 172.658C2874.53 175.445 2875.09 176.559 2871.74 179.345C2865.61 184.361 2860.6 189.376 2855.03 194.391C2852.8 196.063 2851.68 196.62 2849.45 194.391C2823.26 169.872 2792.06 157.055 2756.39 155.383C2733.54 154.269 2712.92 160.399 2696.21 177.116C2673.92 199.407 2675.59 230.056 2699.55 250.117C2710.14 259.59 2722.96 265.163 2736.33 269.621C2758.06 276.865 2779.8 283.553 2801.53 291.354C2821.59 298.041 2839.98 307.515 2854.47 323.675C2869.51 340.95 2877.87 360.454 2875.64 382.745C2872.3 413.951 2856.7 437.913 2829.95 454.074C2808.22 467.448 2783.7 471.906 2758.62 471.906C2756.39 471.906 2755.83 471.349 2755.83 469.12C2757.51 465.219 2757.51 460.761 2757.51 456.86Z" fill="#006297"/>
<path d="M2321.73 289.125C2317.83 299.156 2313.93 308.072 2310.03 317.545C2308.92 320.889 2306.69 320.331 2303.9 320.331C2264.34 320.331 2224.77 320.331 2185.21 320.331C2155.67 320.331 2125.58 320.331 2096.05 320.331C2091.03 320.331 2090.47 319.217 2090.47 314.759C2091.03 308.072 2091.03 301.385 2090.47 295.255C2090.47 290.797 2091.03 289.125 2096.05 289.125C2163.47 289.125 2230.9 289.125 2297.77 289.125C2305.57 289.125 2313.38 289.125 2321.73 289.125Z" fill="#006297"/>
<path d="M2321.18 128.633C2317.28 138.107 2313.38 147.58 2309.47 157.054C2308.36 159.84 2306.13 159.283 2303.9 159.283C2274.37 159.283 2244.83 159.283 2215.3 159.283C2175.73 159.283 2135.61 159.283 2096.05 159.283C2091.03 159.283 2090.47 158.168 2090.47 153.71C2091.03 146.466 2090.47 139.221 2090.47 131.977C2090.47 129.191 2091.59 128.076 2094.37 128.076C2169.05 128.076 2243.72 128.076 2318.39 128.076C2319.51 128.076 2320.06 128.633 2321.18 128.633Z" fill="#006297"/>
<path d="M2321.74 445.714C2317.84 455.187 2313.93 464.103 2310.59 473.019C2309.48 475.806 2308.36 476.363 2305.58 476.363C2235.36 476.363 2165.15 476.363 2094.93 476.363C2091.59 476.363 2091.03 475.249 2091.03 472.462C2091.03 465.218 2091.59 457.416 2091.03 450.172C2091.03 446.271 2092.15 445.714 2095.49 445.714C2152.33 445.714 2209.17 445.714 2266.57 445.714C2284.4 445.714 2302.23 445.714 2321.74 445.714Z" fill="#006297"/>
<path d="M2943.59 726.277V736.357C2943.59 741.828 2947.64 746.436 2952.72 746.436H3045V766.595H2952.72C2935.33 766.595 2921.28 753.06 2921.28 736.357V696.039C2921.28 679.336 2935.33 665.801 2952.72 665.801H3045V685.96H2952.72C2947.64 685.96 2943.59 690.423 2943.59 696.039V706.118H3034.86V726.277H2943.59Z" fill="#212720"/>
<path d="M2820.81 766.595C2797.92 766.595 2779.23 748.452 2779.23 726.277V706.118C2779.23 683.8 2797.92 665.801 2820.81 665.801H2902.96V685.96H2820.81C2810.24 685.96 2801.55 695.031 2801.55 706.118V726.277C2801.55 737.365 2810.24 746.436 2820.81 746.436H2902.96V766.595H2820.81Z" fill="#212720"/>
<path d="M2729.57 766.595C2706.68 766.595 2687.99 748.452 2687.99 726.277V706.118C2687.99 695.031 2679.3 685.96 2668.72 685.96H2658.58C2653.51 685.96 2649.45 690.423 2649.45 696.039V766.595H2627.14V696.039C2627.14 679.336 2641.19 665.801 2658.58 665.801H2668.72C2691.61 665.801 2710.3 683.8 2710.3 706.118V726.277C2710.3 737.365 2718.99 746.436 2729.57 746.436C2734.64 746.436 2738.69 741.828 2738.69 736.357V665.801H2761.01V736.357C2761.01 753.06 2746.95 766.595 2729.57 766.595Z" fill="#212720"/>
<path d="M2507.4 726.277V736.357C2507.4 741.828 2511.46 746.436 2516.53 746.436H2608.82V766.595H2516.53C2499.15 766.595 2485.09 753.06 2485.09 736.357V696.039C2485.09 679.336 2499.15 665.801 2516.53 665.801H2608.82V685.96H2516.53C2511.46 685.96 2507.4 690.423 2507.4 696.039V706.118H2598.68V726.277H2507.4Z" fill="#212720"/>
<path d="M2374.58 766.595C2351.69 766.595 2333 748.452 2333 726.277V706.118C2333 683.8 2351.69 665.801 2374.58 665.801H2456.73V685.96H2374.58C2364.01 685.96 2355.31 695.031 2355.31 706.118V726.277C2355.31 737.365 2364.01 746.436 2374.58 746.436H2435.43C2440.5 746.436 2444.56 741.828 2444.56 736.357C2444.56 730.741 2440.5 726.277 2435.43 726.277H2373.57V706.118H2435.43C2452.82 706.118 2466.87 719.654 2466.87 736.357C2466.87 753.06 2452.82 766.595 2435.43 766.595H2374.58Z" fill="#212720"/>
<path d="M2292.4 766.595V665.801H2314.71V766.595H2292.4Z" fill="#212720"/>
<path d="M2181.79 766.595C2164.55 766.595 2150.35 753.06 2150.35 736.357V665.801H2172.66V736.357C2172.66 741.828 2176.86 746.436 2181.79 746.436H2274.08V766.595H2181.79Z" fill="#212720"/>
<path d="M2039.75 766.595C2022.51 766.595 2008.31 753.06 2008.31 736.357V665.801H2030.62V736.357C2030.62 741.828 2034.82 746.436 2039.75 746.436H2132.03V766.595H2039.75Z" fill="#212720"/>
<path d="M1888.57 726.277V736.357C1888.57 741.828 1892.63 746.436 1897.7 746.436H1989.99V766.595H1897.7C1880.31 766.595 1866.26 753.06 1866.26 736.357V696.039C1866.26 679.336 1880.31 665.801 1897.7 665.801H1989.99V685.96H1897.7C1892.63 685.96 1888.57 690.423 1888.57 696.039V706.118H1979.84V726.277H1888.57Z" fill="#212720"/>
<path d="M1724.21 665.801H1847.94V685.96H1797.23V766.595H1774.92V685.96H1724.21V665.801Z" fill="#212720"/>
<path d="M1674.55 766.595C1651.66 766.595 1632.97 748.452 1632.97 726.277V706.118C1632.97 695.031 1624.28 685.96 1613.7 685.96H1603.56C1598.49 685.96 1594.44 690.423 1594.44 696.039V766.595H1572.12V696.039C1572.12 679.336 1586.18 665.801 1603.56 665.801H1613.7C1636.59 665.801 1655.28 683.8 1655.28 706.118V726.277C1655.28 737.365 1663.98 746.436 1674.55 746.436C1679.62 746.436 1683.68 741.828 1683.68 736.357V665.801H1705.99V736.357C1705.99 753.06 1691.94 766.595 1674.55 766.595Z" fill="#212720"/>
<path d="M1531.52 766.595V665.801H1553.83V766.595H1531.52Z" fill="#212720"/>
<path d="M1409.82 706.118V665.801H1432.13V766.595H1409.82V726.277H1330.72V766.595H1308.41V665.801H1330.72V706.118H1409.82Z" fill="#212720"/>
<path d="M1166.36 665.801H1290.08V685.96H1239.38V766.595H1217.07V685.96H1166.36V665.801Z" fill="#212720"/>
<path d="M1125.75 766.595V665.801H1148.06V766.595H1125.75Z" fill="#212720"/>
<path d="M1085.18 726.277V665.801H1107.49V726.277C1107.49 748.452 1088.8 766.595 1065.91 766.595H1055.77C1047.94 766.595 1040.99 763.859 1035.48 759.395C1029.98 763.859 1022.88 766.595 1015.2 766.595H1005.06C982.169 766.595 963.48 748.452 963.48 726.277V665.801H985.791V726.277C985.791 737.365 994.339 746.436 1005.06 746.436H1015.2C1020.13 746.436 1024.33 741.828 1024.33 736.357V665.801H1046.64V736.357C1046.64 741.828 1050.7 746.436 1055.77 746.436H1065.91C1076.48 746.436 1085.18 737.365 1085.18 726.277Z" fill="#212720"/>
<path d="M841.776 685.96V665.801H864.087V685.96C864.087 708.134 845.398 726.277 822.508 726.277H813.381V766.595H791.07V726.277H781.943C759.052 726.277 740.363 708.134 740.363 685.96V665.801H762.674V685.96C762.674 697.047 771.367 706.118 781.943 706.118H822.508C833.084 706.118 841.776 697.047 841.776 685.96Z" fill="#212720"/>
<path d="M629.853 766.595C606.962 766.595 588.273 748.452 588.273 726.277V706.118C588.273 683.8 606.962 665.801 629.853 665.801H711.997V685.96H629.853C619.277 685.96 610.584 695.031 610.584 706.118V726.277C610.584 737.365 619.277 746.436 629.853 746.436H690.7C695.771 746.436 699.828 741.828 699.828 736.357C699.828 730.741 695.771 726.277 690.7 726.277H628.839V706.118H690.7C708.085 706.118 722.138 719.654 722.138 736.357C722.138 753.06 708.085 766.595 690.7 766.595H629.853Z" fill="#212720"/>
<path d="M538.607 726.277H529.479C529.479 737.365 538.172 746.436 548.748 746.436H570.045V766.595H548.748C525.858 766.595 507.169 748.452 507.169 726.277H458.491V766.595H436.18V696.039C436.18 679.336 450.233 665.801 467.618 665.801H538.607C555.992 665.801 570.045 679.336 570.045 696.039C570.045 712.742 555.992 726.277 538.607 726.277ZM458.491 696.039V706.118H538.607C543.677 706.118 547.734 701.511 547.734 696.039C547.734 690.423 543.677 685.96 538.607 685.96H467.618C462.547 685.96 458.491 690.423 458.491 696.039Z" fill="#212720"/>
<path d="M316.448 726.277V736.357C316.448 741.828 320.504 746.436 325.575 746.436H417.86V766.595H325.575C308.19 766.595 294.137 753.06 294.137 736.357V696.039C294.137 679.336 308.19 665.801 325.575 665.801H417.86V685.96H325.575C320.504 685.96 316.448 690.423 316.448 696.039V706.118H407.719V726.277H316.448Z" fill="#212720"/>
<path d="M244.47 766.595C221.58 766.595 202.891 748.452 202.891 726.277V706.118C202.891 695.031 194.198 685.96 183.622 685.96H173.481C168.41 685.96 164.354 690.423 164.354 696.039L164.354 766.595H142.043L142.043 696.039C142.043 679.336 156.096 665.801 173.481 665.801H183.622C206.513 665.801 225.201 683.8 225.201 706.118V726.277C225.201 737.365 233.894 746.436 244.47 746.436C249.541 746.436 253.597 741.828 253.597 736.357V665.801H275.908V736.357C275.908 753.06 261.855 766.595 244.47 766.595Z" fill="#212720"/>
<path d="M22.3108 726.277V736.357C22.3108 741.828 26.3673 746.436 31.438 746.436H123.724V766.595H31.438C14.0529 766.595 0 753.06 0 736.357L0 696.039C0 679.336 14.0529 665.801 31.438 665.801H123.724V685.96H31.438C26.3673 685.96 22.3108 690.423 22.3108 696.039L22.3108 706.118H113.582L113.582 726.277H22.3108Z" fill="#212720"/>
<path d="M2992 177.334C3021.46 177.334 3045.33 153.456 3045.33 124C3045.33 94.5451 3021.46 70.667 2992 70.667C2962.55 70.667 2938.67 94.5451 2938.67 124C2938.67 153.456 2962.55 177.334 2992 177.334Z" fill="#212720" stroke="#212720" stroke-width="6" stroke-linecap="square" stroke-linejoin="round"/>
<path d="M2960 110.667H2981.33M2970.67 110.667V137.334M2997.33 137.334V110.667L3010.67 126.667L3024 110.667V137.334" stroke="white" stroke-width="6" stroke-linecap="square" stroke-linejoin="round"/>
</svg>
